<svg id="visual" viewBox="0 0 900 600" width="900" height="600" xmlns="http://www.w3.org/2000/svg" xmlns:xlink="http://www.w3.org/1999/xlink" version="1.1"><rect x="0" y="0" width="900" height="600" fill="#ccb5c6"></rect><path d="M0 370L16.7 378.2C33.3 386.3 66.7 402.7 100 407.8C133.3 413 166.7 407 200 407.7C233.3 408.3 266.7 415.7 300 415.8C333.3 416 366.7 409 400 400.8C433.3 392.7 466.7 383.3 500 385.5C533.3 387.7 566.7 401.3 600 410.2C633.3 419 666.7 423 700 417.5C733.3 412 766.7 397 800 391.2C833.3 385.3 866.7 388.7 883.3 390.3L900 392L900 601L883.3 601C866.7 601 833.3 601 800 601C766.7 601 733.3 601 700 601C666.7 601 633.3 601 600 601C566.7 601 533.3 601 500 601C466.7 601 433.3 601 400 601C366.7 601 333.3 601 300 601C266.7 601 233.3 601 200 601C166.7 601 133.3 601 100 601C66.7 601 33.3 601 16.7 601L0 601Z" fill="#fae0e0"></path><path d="M0 428L16.7 428C33.3 428 66.7 428 100 423.8C133.3 419.7 166.7 411.3 200 410.5C233.3 409.7 266.7 416.3 300 422.5C333.3 428.7 366.7 434.3 400 433.2C433.3 432 466.7 424 500 417.5C533.3 411 566.7 406 600 408.2C633.3 410.3 666.7 419.7 700 419.3C733.3 419 766.7 409 800 403C833.3 397 866.7 395 883.3 394L900 393L900 601L883.3 601C866.7 601 833.3 601 800 601C766.7 601 733.3 601 700 601C666.7 601 633.3 601 600 601C566.7 601 533.3 601 500 601C466.7 601 433.3 601 400 601C366.7 601 333.3 601 300 601C266.7 601 233.3 601 200 601C166.7 601 133.3 601 100 601C66.7 601 33.3 601 16.7 601L0 601Z" fill="#edc7cd"></path><path d="M0 471L16.7 470C33.3 469 66.7 467 100 458.5C133.3 450 166.7 435 200 435.7C233.3 436.3 266.7 452.7 300 455.2C333.3 457.7 366.7 446.3 400 441.8C433.3 437.3 466.7 439.7 500 437C533.3 434.3 566.7 426.7 600 428C633.3 429.3 666.7 439.7 700 440.3C733.3 441 766.7 432 800 434.8C833.3 437.7 866.7 452.3 883.3 459.7L900 467L900 601L883.3 601C866.7 601 833.3 601 800 601C766.7 601 733.3 601 700 601C666.7 601 633.3 601 600 601C566.7 601 533.3 601 500 601C466.7 601 433.3 601 400 601C366.7 601 333.3 601 300 601C266.7 601 233.3 601 200 601C166.7 601 133.3 601 100 601C66.7 601 33.3 601 16.7 601L0 601Z" fill="#ddaebe"></path><path d="M0 443L16.7 450C33.3 457 66.7 471 100 478C133.3 485 166.7 485 200 486.8C233.3 488.7 266.7 492.3 300 488.7C333.3 485 366.7 474 400 470.3C433.3 466.7 466.7 470.3 500 471.5C533.3 472.7 566.7 471.3 600 473.2C633.3 475 666.7 480 700 480.2C733.3 480.3 766.7 475.7 800 469.3C833.3 463 866.7 455 883.3 451L900 447L900 601L883.3 601C866.7 601 833.3 601 800 601C766.7 601 733.3 601 700 601C666.7 601 633.3 601 600 601C566.7 601 533.3 601 500 601C466.7 601 433.3 601 400 601C366.7 601 333.3 601 300 601C266.7 601 233.3 601 200 601C166.7 601 133.3 601 100 601C66.7 601 33.3 601 16.7 601L0 601Z" fill="#cb97b2"></path><path d="M0 511L16.7 508.2C33.3 505.3 66.7 499.7 100 493.5C133.3 487.3 166.7 480.7 200 484.3C233.3 488 266.7 502 300 508.3C333.3 514.7 366.7 513.3 400 509C433.3 504.7 466.7 497.3 500 492.7C533.3 488 566.7 486 600 486.2C633.3 486.3 666.7 488.7 700 494.2C733.3 499.7 766.7 508.3 800 510.8C833.3 513.3 866.7 509.7 883.3 507.8L900 506L900 601L883.3 601C866.7 601 833.3 601 800 601C766.7 601 733.3 601 700 601C666.7 601 633.3 601 600 601C566.7 601 533.3 601 500 601C466.7 601 433.3 601 400 601C366.7 601 333.3 601 300 601C266.7 601 233.3 601 200 601C166.7 601 133.3 601 100 601C66.7 601 33.3 601 16.7 601L0 601Z" fill="#b481aa"></path><path d="M0 510L16.7 511.5C33.3 513 66.7 516 100 514.7C133.3 513.3 166.7 507.7 200 510.2C233.3 512.7 266.7 523.3 300 526C333.3 528.7 366.7 523.3 400 517.7C433.3 512 466.7 506 500 507.7C533.3 509.3 566.7 518.7 600 522C633.3 525.3 666.7 522.7 700 524.7C733.3 526.7 766.7 533.3 800 535.7C833.3 538 866.7 536 883.3 535L900 534L900 601L883.3 601C866.7 601 833.3 601 800 601C766.7 601 733.3 601 700 601C666.7 601 633.3 601 600 601C566.7 601 533.3 601 500 601C466.7 601 433.3 601 400 601C366.7 601 333.3 601 300 601C266.7 601 233.3 601 200 601C166.7 601 133.3 601 100 601C66.7 601 33.3 601 16.7 601L0 601Z" fill="#996ea4"></path><path d="M0 527L16.7 528.3C33.3 529.7 66.7 532.3 100 532.7C133.3 533 166.7 531 200 532.5C233.3 534 266.7 539 300 541C333.3 543 366.7 542 400 541.3C433.3 540.7 466.7 540.3 500 540.7C533.3 541 566.7 542 600 544.8C633.3 547.7 666.7 552.3 700 552.7C733.3 553 766.7 549 800 549.3C833.3 549.7 866.7 554.3 883.3 556.7L900 559L900 601L883.3 601C866.7 601 833.3 601 800 601C766.7 601 733.3 601 700 601C666.7 601 633.3 601 600 601C566.7 601 533.3 601 500 601C466.7 601 433.3 601 400 601C366.7 601 333.3 601 300 601C266.7 601 233.3 601 200 601C166.7 601 133.3 601 100 601C66.7 601 33.3 601 16.7 601L0 601Z" fill="#795d9e"></path><path d="M0 570L16.7 570.7C33.3 571.3 66.7 572.7 100 572.3C133.3 572 166.7 570 200 570.7C233.3 571.3 266.7 574.7 300 572.7C333.3 570.7 366.7 563.3 400 561.5C433.3 559.7 466.7 563.3 500 566.8C533.3 570.3 566.7 573.7 600 571.3C633.3 569 666.7 561 700 557.3C733.3 553.7 766.7 554.3 800 556.2C833.3 558 866.7 561 883.3 562.5L900 564L900 601L883.3 601C866.7 601 833.3 601 800 601C766.7 601 733.3 601 700 601C666.7 601 633.3 601 600 601C566.7 601 533.3 601 500 601C466.7 601 433.3 601 400 601C366.7 601 333.3 601 300 601C266.7 601 233.3 601 200 601C166.7 601 133.3 601 100 601C66.7 601 33.3 601 16.7 601L0 601Z" fill="#4f4f98"></path></svg>